<svg xmlns="http://www.w3.org/2000/svg" enable-background="new 0 0 512 512" viewBox="0 0 512 512" id="call">
  <linearGradient id="a" x1="256" x2="256" y1=".213" y2="511.787" gradientUnits="userSpaceOnUse">
    <stop offset="0" stop-color="#5df5ff"></stop>
    <stop offset=".547" stop-color="#55d0ff"></stop>
    <stop offset="1" stop-color="#4eaeff"></stop>
  </linearGradient>
  <path fill="url(#a)" d="M183.814,170.849c-4.66,4.191-9.269,8.487-13.825,12.887c-5.417-14.446-41.283-79.039-31.893-178.781c0-0.13,0.026-0.286,0.026-0.416c5.754,2.708,11.611,5.311,17.469,7.784c9.086,3.931,15.205,14.371,15.283,26.009c0.104,35.72,6.431,70.737,18.771,104.061C193.473,152.754,191.13,164.184,183.814,170.849z M499.694,356.398c-3.905-9.06-14.371-15.205-26.008-15.257c-35.72-0.104-70.737-6.431-104.062-18.771c-10.362-3.827-21.791-1.484-28.482,5.832c-4.166,4.66-8.461,9.294-12.835,13.825c0.235,0.078,0.442,0.182,0.651,0.286c90.906,43.639,172.669,31.554,178.521,31.554C504.771,368.114,502.168,362.282,499.694,356.398z M511.124,381.964c-0.172-1.602-1.611-3.093-3.541-2.889c-62.379,5.858-124.993-5.233-181.02-32.127c-1.555-0.805-3.529-0.133-4.322,1.51c-5.78,12.106-11.585,24.238-17.391,36.37c-2.24,4.686-8.024,6.879-12.757,4.4c-72.768-37.984-131.32-96.537-169.305-169.304c-2.5-4.773-0.234-10.517,4.4-12.731c50.007-24.017,32.464-15.592,36.318-17.444c1.659-0.774,2.309-2.826,1.536-4.322c-26.894-56.027-38.011-118.641-32.127-181.02c0.182-1.77-1.119-3.359-2.889-3.54c-0.785,0.111-57.778-9.219-100.521,39.13C4.539,68.297-5.12,105.579,3.028,142.288C43.511,324.123,187.156,468.32,369.702,508.962C447.725,526.273,519.553,461.583,511.124,381.964z M303.522,77.331c-10.544,0-19.136,8.592-19.136,19.136c0,10.414,8.381,19.135,19.136,19.135c51.21,0.027,92.866,41.682,92.866,92.919c0,10.581,8.604,19.135,19.136,19.135c10.544,0,19.135-8.591,19.135-19.135C434.659,136.109,375.862,77.331,303.522,77.331z M303.522,134.504c-10.792,0-19.136,8.794-19.136,19.135c0,10.544,8.592,19.135,19.136,19.135c19.721,0,35.694,16.091,35.694,35.746c0,10.544,8.592,19.135,19.136,19.135c10.524,0,19.135-8.536,19.135-19.135C377.487,168.079,344.769,134.504,303.522,134.504z M283.944,196.337c-8.696,8.721-8.67,22.936,0.078,31.684c8.525,8.472,22.457,9.037,31.606,0c8.748-8.748,8.774-22.963,0.078-31.684C306.933,187.589,292.692,187.589,283.944,196.337z M303.548,20.159h-0.026c-10.538,0-19.136,8.56-19.136,19.136c0,10.507,8.468,19.135,19.136,19.135c82.851,0,150.038,67.354,150.038,150.091c0,10.336,8.335,19.109,19.136,19.109c10.544,0,19.135-8.565,19.135-19.109C491.831,104.541,407.369,20.159,303.548,20.159z"></path>
</svg>
