<svg xmlns="http://www.w3.org/2000/svg" xml:space="preserve" width="64" height="64" id="location">
  <path fill="#3EA2C4" d="M32.001 1.514C19.022 1.514 8.5 12.175 8.5 25.324c0 17.706 18.794 37.162 23.501 37.162S55.5 43.03 55.5 25.324c0-13.149-10.521-23.81-23.499-23.81zm0 38.337c-7.875 0-14.258-6.468-14.258-14.446 0-3.163 1.004-6.088 2.707-8.466.183 3.056 2.679 5.479 5.741 5.479 3.18 0 5.757-2.611 5.757-5.836a5.833 5.833 0 0 0-3.229-5.236 14.148 14.148 0 0 1 3.282-.39c7.874 0 14.258 6.471 14.258 14.449s-6.384 14.446-14.258 14.446z"></path>
  <path fill="#1D87A8" d="M33.551 1.571c.356 2.876.591 6.096.746 9.589 6.78 1.117 11.962 7.059 11.962 14.244 0 7.097-5.056 12.987-11.714 14.204-.211 8.367-1.167 16.156-2.688 22.86.047.004.1.018.144.018 4.707 0 23.499-19.456 23.499-37.162 0-12.622-9.692-22.943-21.949-23.753z"></path>
  <circle cx="26.317" cy="16.57" r="3.434" fill="#1D87A8"></circle>
  <circle cx="24.292" cy="15.816" r="2.321" fill="#C5F3FF"></circle>
  <circle cx="28.48" cy="19.489" r=".714" fill="#C5F3FF"></circle>
  <circle cx="29.235" cy="17.227" r=".516" fill="#C5F3FF"></circle>
  <path fill="#1D87A8" d="M45.755 29.163c-1.635 6.153-7.166 10.688-13.754 10.688-6.319 0-11.671-4.17-13.54-9.938.626 8.619 6.486 15.376 13.631 15.376 7.35-.001 13.33-7.155 13.663-16.126z"></path>
  <path fill="#4FCCED" d="M32.001 3.578c12.594 0 22.869 10.037 23.47 22.644.01-.3.029-.599.029-.897 0-13.149-10.521-23.811-23.499-23.811S8.5 12.175 8.5 25.324c0 .299.02.598.029.897.601-12.606 10.88-22.643 23.472-22.643z"></path>
</svg>
